HIERARCHY
ROOT SpineBase
{
  OFFSET 0.000000 0.000000 0.000000
  CHANNELS 6 Xposition Yposition Zposition Zrotation Xrotation Yrotation
  JOINT SpineMid
  {
    OFFSET -0.000000 24.276581 0.000000
    CHANNELS 3 Zrotation Xrotation Yrotation
    JOINT SpineShoulder
    {
      OFFSET 0.008690 17.959655 -0.198598
      CHANNELS 3 Zrotation Xrotation Yrotation
      JOINT Neck
      {
        OFFSET 0.007036 5.920362 -0.270385
        CHANNELS 3 Zrotation Xrotation Yrotation
        JOINT Head
        {
          OFFSET 5.135214 9.462482 -0.644963
          CHANNELS 3 Zrotation Xrotation Yrotation
          End Site
          {
            OFFSET 0 0 0
          }
        }
      }
      JOINT ShoulderLeft
      {
        OFFSET -11.975450 -1.117276 -8.071439
        CHANNELS 3 Zrotation Xrotation Yrotation
        JOINT ElbowLeft
        {
          OFFSET -3.219662 -19.526812 -6.020379
          CHANNELS 3 Zrotation Xrotation Yrotation
          JOINT WristLeft
          {
            OFFSET 12.777370 -5.588684 -12.942206
            CHANNELS 3 Zrotation Xrotation Yrotation
            JOINT HandLeft
            {
              OFFSET 9.426715 5.417613 -5.307520
              CHANNELS 3 Zrotation Xrotation Yrotation
              JOINT HandTipLeft
              {
                OFFSET 5.720311 3.346982 -1.931373
                CHANNELS 3 Zrotation Xrotation Yrotation
                End Site
                {
                  OFFSET 0 0 0
                }
              }
              JOINT ThumbLeft
              {
                OFFSET 3.155040 -1.105326 -0.667112
                CHANNELS 3 Zrotation Xrotation Yrotation
                End Site
                {
                  OFFSET 0 0 0
                }
              }
            }
          }
        }
      }
      JOINT ShoulderRight
      {
        OFFSET 13.418901 0.075028 10.172537
        CHANNELS 3 Zrotation Xrotation Yrotation
        JOINT ElbowRight
        {
          OFFSET 10.177117 -12.160999 -1.970502
          CHANNELS 3 Zrotation Xrotation Yrotation
          JOINT WristRight
          {
            OFFSET 8.401463 -7.464900 -17.105849
            CHANNELS 3 Zrotation Xrotation Yrotation
            JOINT HandRight
            {
              OFFSET 0.712277 -0.270699 -12.662131
              CHANNELS 3 Zrotation Xrotation Yrotation
              JOINT HandTipRight
              {
                OFFSET 0.120490 -3.004768 -2.371025
                CHANNELS 3 Zrotation Xrotation Yrotation
                End Site
                {
                  OFFSET 0 0 0
                }
              }
              JOINT ThumbRight
              {
                OFFSET 1.295212 0.178564 -3.076677
                CHANNELS 3 Zrotation Xrotation Yrotation
                End Site
                {
                  OFFSET 0 0 0
                }
              }
            }
          }
        }
      }
    }
  }
  JOINT HipLeft
  {
    OFFSET -4.445911 0.985016 -6.681053
    CHANNELS 3 Zrotation Xrotation Yrotation
    JOINT KneeLeft
    {
      OFFSET 26.786700 7.199406 -18.184332
      CHANNELS 3 Zrotation Xrotation Yrotation
      JOINT AnkleLeft
      {
        OFFSET 6.131965 -36.114125 6.201945
        CHANNELS 3 Zrotation Xrotation Yrotation
        JOINT FootLeft
        {
          OFFSET 5.698489 -4.786191 -7.514943
          CHANNELS 3 Zrotation Xrotation Yrotation
          End Site
          {
            OFFSET 0 0 0
          }
        }
      }
    }
  }
  JOINT HipRight
  {
    OFFSET 4.362313 0.106479 -0.259977
    CHANNELS 3 Zrotation Xrotation Yrotation
    JOINT KneeRight
    {
      OFFSET 27.990715 12.500567 -13.694662
      CHANNELS 3 Zrotation Xrotation Yrotation
      JOINT AnkleRight
      {
        OFFSET 5.873267 -35.021947 10.111981
        CHANNELS 3 Zrotation Xrotation Yrotation
        JOINT FootRight
        {
          OFFSET 0.193583 -7.743933 -7.655599
          CHANNELS 3 Zrotation Xrotation Yrotation
          End Site
          {
            OFFSET 0 0 0
          }
        }
      }
    }
  }
}
MOTION
Frames: 14
Frame Time: 0.033333
6.584297 35.902396 393.317184 1.617371 2.568423 -30.251234 1.406209 -2.553818 30.303077 0.014906 -0.948103 0.068347 -2.157459 3.796121 -1.424292 0.000000 0.000000 0.000000 -4.001409 1.559451 0.712678 3.329499 0.386303 -1.152997 -0.135687 0.027773 -0.077455 -1.549375 -0.853454 0.254281 0.000000 0.000000 0.000000 0.000000 0.000000 0.000000 -19.567204 -29.228824 -32.885435 43.298528 55.463919 -43.338124 -18.352841 -12.609828 -30.304218 -41.486962 -30.843310 71.404192 0.000000 0.000000 0.000000 0.000000 0.000000 0.000000 -0.104081 -3.033169 30.212218 -0.000000 0.000000 0.000000 -12.001008 -19.022270 -9.725367 0.000000 0.000000 0.000000 -0.697819 -3.686690 29.859415 0.203692 -0.370067 0.024079 -1.645687 6.886741 2.688963 0.000000 0.000000 0.000000
6.556910 35.952431 393.002987 1.356146 3.043883 -30.593883 1.403316 -2.603210 30.635235 -0.064131 -0.930819 0.050454 -0.880545 3.279022 -1.362773 0.000000 0.000000 0.000000 -3.602758 1.133414 0.694180 3.177405 0.257250 -1.068642 0.287122 0.373733 -0.291932 -1.023577 -0.968993 0.658934 0.000000 0.000000 0.000000 0.000000 0.000000 0.000000 -19.242389 -29.524898 -32.858574 43.622162 55.891411 -43.081404 -18.267562 -12.636681 -30.268623 -41.633002 -30.459248 70.592462 0.000000 0.000000 0.000000 0.000000 0.000000 0.000000 0.173338 -3.226601 29.552327 0.139461 -0.175179 1.004894 -12.089226 -18.936403 -9.332222 0.000000 0.000000 0.000000 -0.680140 -3.798594 29.000462 0.028615 -0.338268 1.132306 -1.791556 7.385733 3.404454 0.000000 0.000000 0.000000
6.513641 35.997734 392.621540 1.016264 3.688676 -30.599612 1.328373 -2.683216 30.625726 0.113878 -0.977306 0.041743 0.385670 2.436726 -1.164354 0.000000 0.000000 0.000000 -3.274636 0.599165 0.652548 3.162013 0.282770 -1.017069 0.100157 0.229094 -0.306481 -2.083641 -0.286784 -1.066545 0.000000 0.000000 0.000000 0.000000 0.000000 0.000000 -18.890311 -29.963330 -32.851898 43.224626 56.604240 -41.789658 -18.031902 -12.757163 -30.181240 -41.920603 -29.472545 69.466511 0.000000 0.000000 0.000000 0.000000 0.000000 0.000000 0.654469 -3.622703 29.032165 0.270811 -0.229827 1.545344 -12.211714 -18.820652 -8.794472 0.000000 0.000000 0.000000 -0.490275 -3.935818 27.792119 -0.093183 -0.494307 2.269530 -1.964634 7.731696 4.013749 0.000000 0.000000 0.000000
6.463794 36.028423 392.186963 0.700347 4.475996 -30.356174 1.308473 -2.802001 30.372275 0.361462 -0.976221 0.041961 1.175233 1.251984 -0.835531 0.000000 0.000000 0.000000 -3.043443 -0.137460 0.602098 2.886895 0.205469 -0.875485 0.230786 0.432489 -0.612965 -2.175167 -0.346447 -1.005798 0.000000 0.000000 0.000000 0.000000 0.000000 0.000000 -18.493919 -30.647686 -32.966259 42.114579 57.737721 -39.606272 -17.693855 -12.934796 -30.051566 -42.319220 -28.293259 68.032326 0.000000 0.000000 0.000000 0.000000 0.000000 0.000000 1.207465 -4.051175 28.210360 0.319794 -0.358565 2.147929 -12.484276 -19.020910 -8.680414 0.000000 0.000000 0.000000 -0.236856 -4.111794 26.265540 -0.173904 -0.715136 3.508978 -2.138392 7.869590 4.488324 0.000000 0.000000 0.000000
6.438911 35.901166 392.602465 0.470588 3.510442 -30.207193 0.628011 -1.732881 30.200374 0.625959 -0.903200 0.048676 1.740663 0.496541 -0.569548 0.000000 0.000000 0.000000 -3.035603 -0.557775 0.592185 2.265268 -0.259224 -0.653214 1.118631 0.910393 -0.509705 -3.116161 0.180295 -2.509968 0.000000 0.000000 0.000000 0.000000 0.000000 0.000000 -18.435494 -31.018850 -33.070364 41.790134 58.343122 -38.758490 -17.560001 -12.997981 -29.992901 -42.582271 -27.877191 67.296403 0.000000 0.000000 0.000000 0.000000 0.000000 0.000000 1.177685 -2.911675 28.769845 -0.012450 -0.402314 1.451860 -12.111511 -18.795394 -8.950354 0.000000 0.000000 0.000000 -0.406340 -3.250689 26.523851 -0.272639 -0.444993 3.152266 -4.386003 9.186764 6.715160 0.000000 0.000000 0.000000
6.441268 35.898561 392.128425 0.276806 4.381188 -30.292077 0.867869 -1.806926 30.293910 0.797327 -1.237629 0.066603 1.956431 -0.099621 -0.396193 0.000000 0.000000 0.000000 -3.243911 -0.917890 0.587897 2.328589 -0.251517 -0.674159 1.252037 1.117147 -0.750913 -2.712604 -0.225545 -1.677041 0.000000 0.000000 0.000000 0.000000 0.000000 0.000000 -18.529707 -31.535001 -33.382801 40.749258 58.618185 -37.589509 -17.423798 -13.093479 -29.942887 -42.820355 -27.416480 67.271766 0.000000 0.000000 0.000000 0.000000 0.000000 0.000000 1.728916 -3.362964 28.227200 -0.049207 -0.608066 2.106060 -11.823862 -18.867015 -9.733740 0.000000 0.000000 0.000000 0.023875 -3.527114 25.714657 -0.344432 -0.767099 4.043125 -2.693648 7.789878 5.092683 0.000000 0.000000 0.000000
6.412501 35.833532 392.751407 0.162301 3.149382 -30.474818 0.466207 -0.739257 30.476330 0.974652 -1.044414 0.080684 1.497122 -0.315799 -0.348383 0.000000 0.000000 0.000000 -2.979201 -0.297180 0.315881 1.808904 -0.942929 -0.389392 1.256026 1.207127 -0.909900 -2.285200 -0.806254 -0.464127 0.000000 0.000000 0.000000 0.000000 0.000000 0.000000 -19.389842 -31.725141 -33.826115 41.145586 58.781054 -37.749118 -17.406477 -13.116076 -29.935115 -42.800301 -27.180387 67.464126 0.000000 0.000000 0.000000 0.000000 0.000000 0.000000 1.466234 -2.176668 29.319793 -0.310239 -0.536484 1.185048 -11.676710 -18.942470 -10.223802 0.000000 0.000000 0.000000 -0.373134 -2.816783 26.723639 -0.358894 -0.285023 3.224738 -0.724347 6.513805 3.226083 0.000000 0.000000 0.000000
6.415538 35.797252 393.216848 0.268317 2.441681 -30.412964 0.482780 -0.548926 30.417854 1.147793 -0.631250 0.091904 0.532644 -0.006665 -0.516617 0.000000 0.000000 0.000000 -3.755639 -0.950785 0.529821 2.197797 -0.160588 -0.650466 1.181032 0.908913 -0.445292 -1.607158 -0.031729 -1.339698 0.000000 0.000000 0.000000 0.000000 0.000000 0.000000 -19.869807 -31.841792 -34.163597 40.997442 57.873079 -38.830070 -17.617857 -14.160493 -30.395610 -42.650460 -27.580020 70.117406 0.000000 0.000000 0.000000 0.000000 0.000000 0.000000 1.200122 -1.577320 29.930790 -0.500282 -0.478311 0.500530 -14.377838 -22.063570 -12.315709 0.000000 0.000000 0.000000 -0.851874 -2.627189 27.119740 -0.315270 0.038835 2.727579 1.343438 5.430121 1.360225 0.000000 0.000000 0.000000
6.478201 35.808846 393.527516 0.567665 2.139554 -29.799162 0.786577 -0.905632 29.813331 1.189575 -0.152205 0.094203 -1.065021 0.533232 -0.770664 0.000000 0.000000 0.000000 -4.743538 -1.655290 0.824089 2.764357 0.806456 -1.006681 1.167794 0.878005 -0.402779 -1.545667 -0.358419 -0.741490 0.000000 0.000000 0.000000 0.000000 0.000000 0.000000 -20.568119 -31.610979 -34.271374 39.554089 59.256477 -35.449531 -17.063984 -14.179593 -30.222987 -43.178110 -25.630375 68.451120 0.000000 0.000000 0.000000 0.000000 0.000000 0.000000 0.570788 -2.138724 29.799216 -0.000000 0.000000 0.000000 -13.925208 -21.566088 -11.974478 0.000000 0.000000 0.000000 -1.355803 -2.866221 26.868458 -0.138653 0.214831 2.315810 2.794417 4.843753 0.006861 0.000000 0.000000 0.000000
6.493216 35.804118 393.721317 0.884449 2.105764 -29.623618 1.353997 -1.560327 29.663111 1.125758 0.303620 0.090051 -3.159636 1.282377 -1.061550 0.000000 0.000000 0.000000 -5.719138 -2.372332 1.150509 4.159548 3.007255 -0.762550 0.386578 -0.427015 -0.701080 -1.138282 0.679316 -2.295788 0.000000 0.000000 0.000000 0.000000 0.000000 0.000000 -21.403322 -31.034912 -34.127808 33.019832 64.595588 -21.477349 -15.280651 -12.603212 -27.344363 -44.264588 -18.091601 58.228552 0.000000 0.000000 0.000000 0.000000 0.000000 0.000000 0.687262 -1.562865 29.910773 -0.711222 -0.403987 -0.286654 -11.174940 -18.214764 -9.579033 0.000000 0.000000 0.000000 -1.492078 -3.216435 27.322497 0.244905 0.129185 1.728249 3.376555 4.246496 -1.050600 0.000000 0.000000 0.000000
6.499851 35.785721 393.763940 1.040951 2.374187 -29.959169 1.471731 -2.342186 30.007820 0.674042 0.815463 0.054502 -2.473151 1.329432 -1.077498 0.000000 0.000000 0.000000 -5.700748 -3.352561 1.465661 4.879524 4.170082 -0.764613 -0.093571 -0.962719 -0.999524 -2.744809 1.635656 -4.581073 0.000000 0.000000 0.000000 0.000000 0.000000 0.000000 -21.318906 -31.005916 -34.237274 25.281065 66.669707 -8.885673 -14.213066 -11.411325 -23.152709 -44.218340 -11.079596 50.831146 0.000000 0.000000 0.000000 0.000000 0.000000 0.000000 0.748005 -1.801555 30.331285 -0.791966 -0.434775 -0.372572 -5.263349 -9.749232 -4.699128 0.000000 0.000000 0.000000 -1.351366 -3.604476 27.988459 0.561051 -0.099122 1.436637 3.246802 4.224298 -1.369332 0.000000 0.000000 0.000000
6.465365 35.782018 393.699862 1.111554 2.782451 -29.817691 1.715814 -3.035803 29.881829 0.590295 1.045787 0.044950 -2.957312 1.512887 -1.154526 0.000000 0.000000 0.000000 -5.804977 -3.780721 1.615143 6.139847 5.480230 -1.307816 -1.860270 -2.206613 -0.841828 -1.872770 2.277379 -4.853457 0.000000 0.000000 0.000000 0.000000 0.000000 0.000000 -21.773730 -30.531500 -33.951126 20.795107 67.105377 -1.036300 -13.689571 -10.709155 -19.340266 -43.612213 -5.803084 45.499546 0.000000 0.000000 0.000000 0.000000 0.000000 0.000000 0.821674 -2.293071 30.126322 -0.685978 -0.380818 -0.308580 -2.016211 -4.132493 -1.982705 0.000000 0.000000 0.000000 -1.195782 -3.954888 27.833768 0.770229 -0.323891 1.471436 2.937821 4.306979 -1.343279 0.000000 0.000000 0.000000
6.402406 35.794573 393.523282 1.073850 3.309256 -29.339778 1.861625 -3.642715 29.411952 0.589007 1.061554 0.039780 -3.233846 1.521453 -1.141548 0.000000 0.000000 0.000000 -5.605549 -3.792477 1.633096 6.958108 6.164699 -1.764510 -2.121191 -2.279825 -0.984431 -3.200264 1.559036 -4.571893 0.000000 0.000000 0.000000 0.000000 0.000000 0.000000 -21.868559 -30.140133 -33.602245 19.034728 65.810518 1.912692 -13.354640 -10.709356 -17.300158 -43.409083 -2.734991 44.237999 0.000000 0.000000 0.000000 0.000000 0.000000 0.000000 0.685488 -3.410822 29.329167 -0.000000 0.000000 0.000000 -0.230924 -0.979189 -0.818180 0.000000 0.000000 0.000000 -1.036384 -4.214203 26.912677 0.775787 -0.554040 1.893328 2.013190 5.151039 -0.393973 0.000000 0.000000 0.000000
6.323171 35.804541 393.221238 1.018550 3.937062 -28.623122 2.004284 -4.079095 28.702426 0.552408 0.889779 0.039431 -3.360475 1.628227 -1.206148 0.000000 0.000000 0.000000 -5.188031 -3.476781 1.516058 7.005629 6.055737 -1.962407 -2.171968 -2.175232 -0.909630 -4.754494 0.850298 -4.340747 0.000000 0.000000 0.000000 0.000000 0.000000 0.000000 -21.378025 -30.320925 -33.669638 19.581083 62.783401 -0.837346 -13.223583 -11.280614 -18.066080 -44.304892 -3.176899 48.818036 0.000000 0.000000 0.000000 0.000000 0.000000 0.000000 0.992627 -3.943668 28.622288 -0.000000 0.000000 0.000000 0.376940 -0.140134 -0.756709 0.000000 0.000000 0.000000 -0.752754 -4.426801 25.738036 1.339592 -1.322364 2.452017 -1.878502 7.664747 2.796538 0.000000 0.000000 0.000000
